<svg width="35" height="35" viewBox="0 0 35 35" fill="none" xmlns="http://www.w3.org/2000/svg">
<path d="M17.4998 2.91675C15.5847 2.91675 13.6884 3.29396 11.919 4.02684C10.1497 4.75972 8.54205 5.83392 7.18786 7.18811C4.45296 9.92301 2.9165 13.6323 2.9165 17.5001C2.9165 23.9459 7.10192 29.4147 12.8915 31.3542C13.6207 31.4709 13.854 31.0188 13.854 30.6251V28.1605C9.81442 29.0355 8.954 26.2063 8.954 26.2063C8.28317 24.5147 7.33525 24.0626 7.33525 24.0626C6.00817 23.1584 7.43734 23.1876 7.43734 23.1876C8.89567 23.2897 9.66859 24.6897 9.66859 24.6897C10.9373 26.9063 13.0811 26.2501 13.9123 25.9001C14.0436 24.9522 14.4228 24.3105 14.8311 23.9459C11.5936 23.5813 8.19567 22.3272 8.19567 16.7709C8.19567 15.1522 8.74984 13.8542 9.69775 12.8188C9.55192 12.4542 9.0415 10.9376 9.84359 8.96883C9.84359 8.96883 11.0686 8.57508 13.854 10.4563C15.0061 10.1355 16.2603 9.97508 17.4998 9.97508C18.7394 9.97508 19.9936 10.1355 21.1457 10.4563C23.9311 8.57508 25.1561 8.96883 25.1561 8.96883C25.9582 10.9376 25.4478 12.4542 25.3019 12.8188C26.2498 13.8542 26.804 15.1522 26.804 16.7709C26.804 22.3417 23.3915 23.5667 20.1394 23.9313C20.6644 24.3834 21.1457 25.273 21.1457 26.6292V30.6251C21.1457 31.0188 21.379 31.4855 22.1228 31.3542C27.9123 29.4001 32.0832 23.9459 32.0832 17.5001C32.0832 15.585 31.706 13.6886 30.9731 11.9193C30.2402 10.1499 29.166 8.5423 27.8118 7.18811C26.4576 5.83392 24.85 4.75972 23.0806 4.02684C21.3113 3.29396 19.4149 2.91675 17.4998 2.91675Z" fill="black"/>
</svg>
